<svg width="512" height="512" viewBox="0 0 256 256" xmlns="http://www.w3.org/2000/svg" role="img" aria-labelledby="title">
  <title id="title">Fasting Timer Logo</title>
  <rect x="112" y="24" width="32" height="22" rx="11" fill="#52A27B"/>
  <circle cx="128" cy="140" r="92" fill="none" stroke="#52A27B" stroke-width="18" stroke-linecap="round"/>
  <path d="M192 76c18.6 17.2 30 41.6 30 68 0 53.6-43.4 97-97 97-26.4 0-50.8-11.4-68-30" fill="none" stroke="#52A27B" stroke-width="18" stroke-linecap="round" stroke-linejoin="round" opacity="0.35"/>
  <path d="M128 64c-42.1 0-76 33.9-76 76 0 11.3 2.5 22 7 31.6" fill="none" stroke="#52A27B" stroke-width="14" stroke-linecap="round" stroke-linejoin="round"/>
  <g fill="#52A27B">
    <rect x="106" y="92" width="10" height="62" rx="4"/>
    <rect x="120" y="92" width="10" height="62" rx="4"/>
    <path d="M150 92c-8.8 0-16 7.2-16 16v30c0 8.8 7.2 16 16 16s16-7.2 16-16v-30c0-8.8-7.2-16-16-16zm0 12c2.2 0 4 1.8 4 4v30c0 2.2-1.8 4-4 4s-4-1.8-4-4v-30c0-2.2 1.8-4 4-4z"/>
  </g>
</svg>
